<svg width="50" height="50" viewBox="0 0 50 50" fill="none" xmlns="http://www.w3.org/2000/svg">
<circle cx="25" cy="25" r="21.5" stroke="#B79F81" stroke-width="7"/>
<g clip-path="url(#clip0)">
<path d="M35.8967 16.489H30.8083C28.9638 17.2205 28.5549 15.9802 24.7024 15.9802C20.8498 15.9802 20.4409 17.2205 18.5964 16.489H13.5081L12.8296 29.2735C13.2537 34.2982 16.3702 37.0332 18.8296 38.0296H30.5752C33.0345 37.0332 36.1511 34.2982 36.5752 29.2735L35.8967 16.489Z" fill="#F5DCB4"/>
<path d="M30.8084 16.4891C36.5376 18.2039 33.4187 27.0474 37.1076 30.87C37.6372 31.4187 38.5729 31.175 38.794 30.4451C39.086 29.4808 39.3777 27.9552 39.3313 25.7753C39.2677 22.7859 40.4762 22.5951 40.4762 22.5951C40.4762 22.5951 38.9497 15.4714 34.3702 15.4714C32.8437 15.4714 30.8084 16.4891 30.8084 16.4891Z" fill="#965A50"/>
<path d="M19.3596 29.7187C18.3801 29.7187 17.5787 28.9173 17.5787 27.9378V26.9201C17.5787 25.9406 18.3801 25.1392 19.3596 25.1392C20.3392 25.1392 21.1405 25.9406 21.1405 26.9201V27.9378C21.1406 28.9174 20.3392 29.7187 19.3596 29.7187Z" fill="#4B3F4E"/>
<path d="M19.3597 25.1392C19.2726 25.1392 19.1891 25.1528 19.1053 25.165V27.6833C19.1053 28.2453 19.5609 28.701 20.1229 28.701C20.685 28.701 21.1406 28.2453 21.1406 27.6833V26.9201C21.1407 25.9407 20.3392 25.1392 19.3597 25.1392Z" fill="#5D5360"/>
<path d="M19.3595 27.1745C19.7811 27.1745 20.1228 26.8328 20.1228 26.4113C20.1228 25.9898 19.7811 25.648 19.3595 25.648C18.938 25.648 18.5963 25.9898 18.5963 26.4113C18.5963 26.8328 18.938 27.1745 19.3595 27.1745Z" fill="white"/>
<path d="M30.045 29.7187C29.0655 29.7187 28.2641 28.9173 28.2641 27.9378V26.9201C28.2641 25.9406 29.0655 25.1392 30.045 25.1392C31.0245 25.1392 31.8259 25.9406 31.8259 26.9201V27.9378C31.8259 28.9174 31.0245 29.7187 30.045 29.7187Z" fill="#4B3F4E"/>
<path d="M30.0451 25.1392C29.958 25.1392 29.8744 25.1528 29.7906 25.165V27.6833C29.7906 28.2453 30.2463 28.701 30.8083 28.701C31.3704 28.701 31.826 28.2453 31.826 27.6833V26.9201C31.826 25.9407 31.0245 25.1392 30.0451 25.1392Z" fill="#5D5360"/>
<path d="M30.0451 27.1745C30.4666 27.1745 30.8083 26.8328 30.8083 26.4113C30.8083 25.9898 30.4666 25.648 30.0451 25.648C29.6236 25.648 29.2819 25.9898 29.2819 26.4113C29.2819 26.8328 29.6236 27.1745 30.0451 27.1745Z" fill="white"/>
<path d="M37.1076 30.87C37.6372 31.4188 38.5729 31.175 38.794 30.4451C38.9614 29.8921 39.1266 29.1475 39.2302 28.2076C38.2299 27.709 37.376 26.1182 36.8508 23.422C35.8967 18.5244 34.561 15.7895 30.8084 16.4891C36.5376 18.2039 33.4187 27.0474 37.1076 30.87Z" fill="#824641"/>
<path d="M18.8296 38.0296H21.2414C21.2414 38.0296 17.0064 35.1887 16.3067 30.1639C14.9457 20.3889 17.5364 17.4642 19.7772 16.7179C19.4222 16.73 19.0535 16.6703 18.5964 16.489H13.5081L12.8296 29.2735C13.2537 34.2982 16.3702 37.0331 18.8296 38.0296Z" fill="#E7C9A5"/>
<path d="M18.5964 16.4891C12.8672 18.2039 15.9862 27.0474 12.2971 30.87C11.7675 31.4187 10.8318 31.175 10.6108 30.4451C10.3187 29.4808 10.0271 27.9552 10.0735 25.7753C10.137 22.7859 8.92856 22.5951 8.92856 22.5951C8.92856 22.5951 10.455 15.4714 15.0346 15.4714C16.561 15.4714 18.5964 16.4891 18.5964 16.4891Z" fill="#965A50"/>
<path d="M18.4261 16.4081C17.9097 16.1685 16.2993 15.4714 15.0346 15.4714C10.455 15.4714 8.92856 22.5951 8.92856 22.5951C8.92856 22.5951 10.137 22.786 10.0735 25.7754C10.0726 25.8153 10.0738 25.8512 10.0731 25.8907C13.0012 14.7821 17.5006 16.018 18.4261 16.4081Z" fill="#824641"/>
<path d="M24.7025 42.4395C27.7937 42.4395 30.2997 40.6171 30.2997 38.3691C30.2997 36.1211 27.7937 34.2987 24.7025 34.2987C21.6112 34.2987 19.1052 36.1211 19.1052 38.3691C19.1052 40.6171 21.6112 42.4395 24.7025 42.4395Z" fill="#BC8E78"/>
<path d="M22.1583 38.3689V40.913C22.1583 42.3181 23.2973 43.4571 24.7024 43.4571C26.1075 43.4571 27.2465 42.3181 27.2465 40.913V38.3689H22.1583Z" fill="#FF8087"/>
<path d="M22.1583 40.3561C22.894 40.2639 23.5883 40.0401 24.1936 39.7016V40.4042C24.1936 40.6851 24.4214 40.913 24.7024 40.913C24.9834 40.913 25.2112 40.6851 25.2112 40.4042V39.6951C25.8107 40.0372 26.5068 40.2636 27.2465 40.3563V38.3688H22.1583V40.3561Z" fill="#E6646E"/>
<path d="M28.0098 33.7894H21.395C19.2874 33.7894 17.5788 35.0424 17.5788 36.588C17.5788 38.1336 19.2875 39.3865 21.395 39.3865C22.4564 39.3865 23.415 39.068 24.1059 38.5548C24.2808 38.4249 24.4917 38.36 24.7022 38.36C24.9132 38.36 25.1241 38.4249 25.299 38.5548C25.9899 39.068 26.9485 39.3865 28.0098 39.3865C30.1175 39.3865 31.826 38.1336 31.826 36.588C31.8261 35.0424 30.1175 33.7894 28.0098 33.7894Z" fill="#D4AF91"/>
<path d="M24.7024 31.754C26.3885 31.754 27.7554 32.6653 27.7554 33.7893C27.7554 34.8734 26.4723 35.4442 25.5462 35.8663C25.0094 36.111 24.3953 36.111 23.8585 35.8663C22.9324 35.4442 21.6493 34.8734 21.6493 33.7893C21.6494 32.6653 23.0163 31.754 24.7024 31.754Z" fill="#5D5360"/>
<path d="M23.1601 33.2328C23.0889 32.5924 23.54 31.9076 23.54 31.9076C22.4307 32.2126 21.6495 32.9398 21.6495 33.7893C21.6495 34.8733 22.9326 35.4442 23.8586 35.8663C24.3953 36.1109 25.0096 36.1109 25.5464 35.8663C25.7456 35.7755 25.9612 35.6772 26.1771 35.5691C24.9251 35.3477 23.3031 34.5208 23.1601 33.2328Z" fill="#4B3F4E"/>
</g>
<defs>
<clipPath id="clip0">
<rect width="31.5476" height="31.5476" fill="white" transform="translate(8.92856 13.6905)"/>
</clipPath>
</defs>
</svg>
