<?xml version="1.0" encoding="UTF-8" standalone="no"?>
<!DOCTYPE svg PUBLIC "-//W3C//DTD SVG 1.1//EN" "http://www.w3.org/Graphics/SVG/1.1/DTD/svg11.dtd">
<svg width="100%" height="100%" viewBox="0 0 32 57" version="1.1" xmlns="http://www.w3.org/2000/svg" xmlns:xlink="http://www.w3.org/1999/xlink" xml:space="preserve" xmlns:serif="http://www.serif.com/" style="fill-rule:evenodd;clip-rule:evenodd;stroke-linejoin:round;stroke-miterlimit:2;">
    <path d="M18.842,9.441C16.075,9.441 13.833,7.328 13.833,4.72C13.833,2.113 16.076,0 18.842,0C21.607,0 23.849,2.114 23.849,4.72C23.849,7.327 21.607,9.441 18.842,9.441Z" style="fill:white;fill-opacity:0.35;fill-rule:nonzero;"/>
    <path d="M0.742,25.254L7.371,20.692C7.526,20.585 7.645,20.437 7.713,20.266L11.291,11.222C11.586,10.476 12.367,10.126 13.165,10.126L24.631,10.126C25.335,10.126 26.041,10.381 26.399,11.008L31.601,20.113C31.829,20.51 31.881,20.978 31.747,21.412L29.228,29.608C29,30.352 28.288,30.834 27.516,30.834C27.35,30.834 27.18,30.812 27.012,30.765C26.066,30.499 25.524,29.552 25.802,28.648L28.007,21.5C28.08,21.263 28.052,21.008 27.928,20.791L24.849,15.389L24.849,53.911C24.849,55.324 23.641,56.47 22.161,56.47C20.682,56.47 19.474,55.324 19.474,53.911L19.474,34.583L18.205,34.583L18.205,53.911C18.205,55.324 16.997,56.47 15.518,56.47C14.038,56.47 12.831,55.324 12.831,53.911L12.831,16.933L10.749,22.215C10.625,22.529 10.412,22.8 10.128,22.996L2.827,28.022C2.512,28.24 2.147,28.344 1.786,28.344C1.232,28.344 0.686,28.098 0.337,27.635C-0.24,26.871 -0.058,25.805 0.742,25.254Z" style="fill:white;fill-opacity:0.35;fill-rule:nonzero;"/>
</svg>
