<?xml version="1.0" encoding="UTF-8" standalone="no"?>
<!DOCTYPE svg PUBLIC "-//W3C//DTD SVG 1.1//EN" "http://www.w3.org/Graphics/SVG/1.1/DTD/svg11.dtd">
<svg width="100%" height="100%" viewBox="0 0 35 30" version="1.1" xmlns="http://www.w3.org/2000/svg" xmlns:xlink="http://www.w3.org/1999/xlink" xml:space="preserve" xmlns:serif="http://www.serif.com/" style="fill-rule:evenodd;clip-rule:evenodd;stroke-linejoin:round;stroke-miterlimit:2;">
    <path d="M34.954,8.166C34.884,7.983 34.738,7.837 34.553,7.764L31.443,6.532C31.25,5.545 30.487,4.755 29.505,4.506L29.337,2.609C29.313,2.332 29.123,2.095 28.854,2.006C28.585,1.917 28.288,1.993 28.097,2.199L27.299,3.063L26.805,1.368C26.72,1.076 26.453,0.871 26.144,0.86C25.832,0.85 25.553,1.036 25.448,1.322L21.762,11.306C21.762,11.306 8.108,11.931 8.102,11.932C5.302,12.097 2.65,10.626 1.346,8.184C1.163,7.841 0.732,7.709 0.383,7.889C0.033,8.068 -0.101,8.492 0.082,8.835C1.247,11.018 3.311,12.553 5.677,13.113C5.432,13.394 4.904,14.09 4.595,15.185C4.26,16.376 4.139,18.275 5.373,20.685L3.371,23.354C3.254,23.51 3.208,23.706 3.244,23.897L4.125,28.586C4.187,28.919 4.483,29.16 4.827,29.16L5.724,29.16C5.936,29.16 6.137,29.068 6.272,28.908C6.408,28.749 6.465,28.538 6.427,28.334L5.869,25.325L11.771,20.976C12.335,20.511 12.745,19.998 13.038,19.471C16.113,20.001 20.323,20.719 23.021,21.145L24.21,28.568C24.265,28.909 24.564,29.16 24.915,29.16L25.653,29.16C26.048,29.16 26.367,28.846 26.367,28.459L26.367,20.924C27.038,20.475 27.277,19.723 27.436,18.987C27.441,18.964 29.024,11.79 29.024,11.79C29.323,11.839 29.624,11.865 29.927,11.865C32.018,11.865 33.933,10.663 34.924,8.729C35.014,8.554 35.025,8.35 34.954,8.166Z" style="fill:white;fill-opacity:0.35;fill-rule:nonzero;"/>
</svg>
