<?xml version="1.0" encoding="UTF-8" standalone="no"?>
<!DOCTYPE svg PUBLIC "-//W3C//DTD SVG 1.1//EN" "http://www.w3.org/Graphics/SVG/1.1/DTD/svg11.dtd">
<svg width="100%" height="100%" viewBox="0 0 53 26" version="1.1" xmlns="http://www.w3.org/2000/svg" xmlns:xlink="http://www.w3.org/1999/xlink" xml:space="preserve" xmlns:serif="http://www.serif.com/" style="fill-rule:evenodd;clip-rule:evenodd;stroke-linejoin:round;stroke-miterlimit:2;">
    <g transform="matrix(1,0,0,1,-0.47141,-11.5159)">
        <rect x="0.473" y="11.594" width="0.066" height="0.066" style="fill:none;"/>
        <path d="M15.019,33.998C15.019,33.998 15.872,31.839 8.879,29.929C8.879,29.929 2.654,28.02 1.29,24.284C1.29,24.284 0.693,20.132 4.701,19.883C4.701,19.883 9.306,21.333 12.035,17.701C12.035,17.701 16.384,11.829 22.438,14.984C22.438,14.984 23.973,16.644 26.105,16.229C28.237,15.814 29.942,17.724 30.113,20.547C30.113,20.547 30.198,24.034 28.748,25.778C28.748,25.778 37.447,36.24 44.865,26.442C44.865,26.442 48.532,20.879 42.819,18.305C42.819,18.305 42.137,17.142 44.183,17.06C44.183,17.06 52.967,16.81 52.199,26.857C52.199,26.857 51.773,31.922 50.067,33.998C50.067,33.998 49.214,34.662 48.959,33.334C48.959,33.334 52.626,28.435 50.238,21.626C50.238,21.626 49.385,18.72 44.951,18.222C44.951,18.222 50.664,22.208 44.183,28.933C44.183,28.933 37.02,36.157 28.493,26.442C28.493,26.442 25.594,29.847 22.609,26.11C22.609,26.11 20.671,23.838 21.33,19.301C21.33,19.301 22.012,18.139 22.353,19.716C22.694,21.294 22.353,26.94 26.276,26.608C26.276,26.608 28.663,25.612 29.005,20.713C29.005,20.713 29.09,16.312 24.485,17.226C24.485,17.226 22.865,14.901 21.074,16.977C21.074,16.977 20.477,16.063 22.012,15.482C22.012,15.482 17.236,13.572 13.058,18.388C13.058,18.388 9.818,23.121 5.639,21.46C5.639,21.46 3.934,19.551 2.825,21.543C2.825,21.543 2.74,22.374 2.996,23.038C2.996,23.038 1.631,25.363 6.577,27.355C6.577,27.355 16.725,30.843 16.043,32.67C16.043,32.67 17.151,34.745 15.019,33.998Z" style="fill:rgb(0,108,97);fill-rule:nonzero;"/>
        <path d="M5.64,21.708C5.64,22.443 5.028,23.039 4.273,23.039C3.518,23.039 2.906,22.443 2.906,21.708C2.906,20.973 3.518,20.377 4.273,20.377C5.028,20.377 5.64,20.973 5.64,21.708Z" style="fill:rgb(0,108,97);fill-rule:nonzero;"/>
        <path d="M16.813,20.047C16.813,20.965 16.201,21.709 15.446,21.709C14.691,21.709 14.079,20.965 14.079,20.047C14.079,19.129 14.691,18.385 15.446,18.385C16.201,18.385 16.813,19.129 16.813,20.047Z" style="fill:rgb(0,108,97);fill-rule:nonzero;"/>
        <path d="M14.582,33.408C14.582,33.408 15.435,31.171 8.442,29.192C8.442,29.192 2.217,27.213 0.853,23.341C0.853,23.341 0.256,19.039 4.264,18.781C4.264,18.781 8.868,20.283 11.597,16.52C11.597,16.52 15.946,10.434 22.001,13.704C22.001,13.704 23.536,15.425 25.668,14.995C27.799,14.564 29.505,16.544 29.676,19.469C29.676,19.469 29.761,23.083 28.311,24.89C28.311,24.89 37.009,35.731 44.428,25.578C44.428,25.578 48.095,19.813 42.381,17.146C42.381,17.146 41.699,15.941 43.746,15.855C43.746,15.855 52.529,15.597 51.761,26.009C51.761,26.009 51.335,31.257 49.63,33.408C49.63,33.408 48.777,34.096 48.521,32.72C48.521,32.72 52.188,27.643 49.8,20.587C49.8,20.587 48.948,17.576 44.513,17.06C44.513,17.06 50.227,21.19 43.746,28.16C43.746,28.16 36.583,35.645 28.055,25.578C28.055,25.578 25.156,29.106 22.171,25.234C22.171,25.234 20.233,22.879 20.892,18.178C20.892,18.178 21.574,16.974 21.915,18.609C22.257,20.244 21.915,26.094 25.838,25.75C25.838,25.75 28.226,24.718 28.567,19.641C28.567,19.641 28.652,15.081 24.047,16.027C24.047,16.027 22.427,13.618 20.636,15.769C20.636,15.769 20.04,14.823 21.574,14.221C21.574,14.221 16.799,12.242 12.621,17.232C12.621,17.232 9.38,22.137 5.202,20.416C5.202,20.416 3.496,18.436 2.388,20.502C2.388,20.502 2.302,21.362 2.558,22.05C2.558,22.05 1.194,24.459 6.139,26.525C6.139,26.525 16.287,30.139 15.605,32.032C15.605,32.032 16.714,34.183 14.582,33.408Z" style="fill:white;fill-rule:nonzero;"/>
        <path d="M5.202,20.67C5.202,21.431 4.59,22.049 3.835,22.049C3.08,22.049 2.468,21.431 2.468,20.67C2.468,19.908 3.08,19.29 3.835,19.29C4.59,19.29 5.202,19.908 5.202,20.67Z" style="fill:white;fill-rule:nonzero;"/>
        <path d="M16.373,18.949C16.373,19.9 15.761,20.671 15.006,20.671C14.251,20.671 13.639,19.9 13.639,18.949C13.639,17.997 14.251,17.226 15.006,17.226C15.761,17.226 16.373,17.997 16.373,18.949Z" style="fill:white;fill-rule:nonzero;"/>
    </g>
</svg>
