<svg width="50" height="50" viewBox="0 0 50 50" fill="none" xmlns="http://www.w3.org/2000/svg">
<circle cx="25" cy="25" r="21.5" stroke="#B79F81" stroke-width="7"/>
<g clip-path="url(#clip0)">
<path d="M35.8967 16.489H30.8083C28.9639 17.2205 28.555 15.9802 24.7024 15.9802C20.8498 15.9802 20.4409 17.2205 18.5964 16.489H13.5081L12.8297 29.2735C13.2537 34.2982 16.3703 37.0332 18.8297 38.0296H30.5752C33.0345 37.0332 36.1512 34.2982 36.5752 29.2735L35.8967 16.489Z" fill="#F5DCB4"/>
<path d="M30.8085 16.4891C36.5376 18.2039 33.4187 27.0474 37.1077 30.87C37.6373 31.4187 38.573 31.175 38.794 30.4451C39.0861 29.4808 39.3778 27.9552 39.3314 25.7753C39.2678 22.7859 40.4763 22.5951 40.4763 22.5951C40.4763 22.5951 38.9498 15.4714 34.3703 15.4714C32.8438 15.4714 30.8085 16.4891 30.8085 16.4891Z" fill="#965A50"/>
<path d="M19.3597 29.7187C18.3802 29.7187 17.5788 28.9173 17.5788 27.9378V26.9201C17.5788 25.9406 18.3802 25.1392 19.3597 25.1392C20.3392 25.1392 21.1406 25.9406 21.1406 26.9201V27.9378C21.1407 28.9174 20.3392 29.7187 19.3597 29.7187Z" fill="#4B3F4E"/>
<path d="M19.3598 25.1392C19.2727 25.1392 19.1891 25.1528 19.1053 25.165V27.6833C19.1053 28.2453 19.561 28.701 20.123 28.701C20.6851 28.701 21.1407 28.2453 21.1407 27.6833V26.9201C21.1407 25.9407 20.3393 25.1392 19.3598 25.1392Z" fill="#5D5360"/>
<path d="M19.3596 27.1745C19.7811 27.1745 20.1228 26.8328 20.1228 26.4113C20.1228 25.9898 19.7811 25.648 19.3596 25.648C18.938 25.648 18.5963 25.9898 18.5963 26.4113C18.5963 26.8328 18.938 27.1745 19.3596 27.1745Z" fill="white"/>
<path d="M30.0451 29.7187C29.0655 29.7187 28.2642 28.9173 28.2642 27.9378V26.9201C28.2642 25.9406 29.0655 25.1392 30.0451 25.1392C31.0246 25.1392 31.826 25.9406 31.826 26.9201V27.9378C31.826 28.9174 31.0245 29.7187 30.0451 29.7187Z" fill="#4B3F4E"/>
<path d="M30.0451 25.1392C29.9581 25.1392 29.8745 25.1528 29.7907 25.165V27.6833C29.7907 28.2453 30.2464 28.701 30.8084 28.701C31.3704 28.701 31.826 28.2453 31.826 27.6833V26.9201C31.826 25.9407 31.0246 25.1392 30.0451 25.1392Z" fill="#5D5360"/>
<path d="M30.0452 27.1745C30.4667 27.1745 30.8084 26.8328 30.8084 26.4113C30.8084 25.9898 30.4667 25.648 30.0452 25.648C29.6236 25.648 29.2819 25.9898 29.2819 26.4113C29.2819 26.8328 29.6236 27.1745 30.0452 27.1745Z" fill="white"/>
<path d="M37.1077 30.87C37.6373 31.4188 38.573 31.175 38.794 30.4451C38.9615 29.8921 39.1267 29.1475 39.2303 28.2076C38.23 27.709 37.3761 26.1182 36.8508 23.422C35.8968 18.5244 34.5611 15.7895 30.8085 16.4891C36.5376 18.2039 33.4187 27.0474 37.1077 30.87Z" fill="#824641"/>
<path d="M18.8297 38.0296H21.2414C21.2414 38.0296 17.0064 35.1887 16.3067 30.1639C14.9457 20.3889 17.5364 17.4643 19.7772 16.718C19.4222 16.73 19.0535 16.6703 18.5965 16.4891H13.5081L12.8297 29.2735C13.2537 34.2982 16.3703 37.0331 18.8297 38.0296Z" fill="#E7C9A5"/>
<path d="M18.5964 16.4891C12.8672 18.2039 15.9862 27.0474 12.2972 30.87C11.7676 31.4187 10.8319 31.175 10.6108 30.4451C10.3188 29.4808 10.0271 27.9552 10.0735 25.7753C10.1371 22.7859 8.92859 22.5951 8.92859 22.5951C8.92859 22.5951 10.4551 15.4714 15.0346 15.4714C16.5611 15.4714 18.5964 16.4891 18.5964 16.4891Z" fill="#965A50"/>
<path d="M18.4261 16.4081C17.9097 16.1685 16.2993 15.4714 15.0346 15.4714C10.4551 15.4714 8.92859 22.5951 8.92859 22.5951C8.92859 22.5951 10.1371 22.786 10.0735 25.7754C10.0726 25.8153 10.0738 25.8512 10.0732 25.8907C13.0013 14.7821 17.5006 16.018 18.4261 16.4081Z" fill="#824641"/>
<path d="M24.7025 42.4395C27.7937 42.4395 30.2997 40.6171 30.2997 38.3691C30.2997 36.1211 27.7937 34.2987 24.7025 34.2987C21.6112 34.2987 19.1052 36.1211 19.1052 38.3691C19.1052 40.6171 21.6112 42.4395 24.7025 42.4395Z" fill="#BC8E78"/>
<path d="M22.1583 38.3689V40.913C22.1583 42.3181 23.2974 43.4571 24.7025 43.4571C26.1076 43.4571 27.2466 42.3181 27.2466 40.913V38.3689H22.1583Z" fill="#FF8087"/>
<path d="M22.1583 40.3561C22.8941 40.2639 23.5883 40.0401 24.1936 39.7016V40.4042C24.1936 40.6851 24.4215 40.913 24.7025 40.913C24.9834 40.913 25.2113 40.6851 25.2113 40.4042V39.6951C25.8108 40.0372 26.5068 40.2636 27.2466 40.3563V38.3688H22.1583V40.3561Z" fill="#E6646E"/>
<path d="M28.0098 33.7894H21.3951C19.2874 33.7894 17.5789 35.0424 17.5789 36.588C17.5789 38.1336 19.2875 39.3865 21.3951 39.3865C22.4564 39.3865 23.415 39.068 24.1059 38.5548C24.2808 38.425 24.4917 38.36 24.7023 38.36C24.9132 38.36 25.1241 38.4249 25.299 38.5548C25.9899 39.068 26.9485 39.3865 28.0098 39.3865C30.1175 39.3865 31.8261 38.1336 31.8261 36.588C31.8261 35.0424 30.1175 33.7894 28.0098 33.7894Z" fill="#D4AF91"/>
<path d="M24.7024 31.754C26.3886 31.754 27.7554 32.6653 27.7554 33.7893C27.7554 34.8734 26.4723 35.4442 25.5463 35.8663C25.0095 36.111 24.3953 36.111 23.8585 35.8663C22.9325 35.4442 21.6494 34.8734 21.6494 33.7893C21.6495 32.6653 23.0163 31.754 24.7024 31.754Z" fill="#5D5360"/>
<path d="M23.1601 33.2328C23.089 32.5924 23.5401 31.9076 23.5401 31.9076C22.4308 32.2126 21.6495 32.9398 21.6495 33.7893C21.6495 34.8733 22.9326 35.4442 23.8587 35.8663C24.3954 36.1109 25.0097 36.1109 25.5465 35.8663C25.7456 35.7755 25.9613 35.6772 26.1771 35.5691C24.9251 35.3477 23.3032 34.5208 23.1601 33.2328Z" fill="#4B3F4E"/>
</g>
<defs>
<clipPath id="clip0">
<rect width="31.5476" height="31.5476" fill="white" transform="translate(8.92859 13.6905)"/>
</clipPath>
</defs>
</svg>
