<?xml version="1.0" standalone="no"?>
<!DOCTYPE svg PUBLIC "-//W3C//DTD SVG 20010904//EN"
 "http://www.w3.org/TR/2001/REC-SVG-20010904/DTD/svg10.dtd">
<svg version="1.0" xmlns="http://www.w3.org/2000/svg"
 width="512.000000pt" height="512.000000pt" viewBox="0 0 512.000000 512.000000"
 preserveAspectRatio="xMidYMid meet">
<metadata>
Created by potrace 1.11, written by Peter Selinger 2001-2013
</metadata>
<g transform="translate(0.000000,512.000000) scale(0.100000,-0.100000)"
fill="#000000" stroke="none">
<path d="M1669 4743 c-422 -105 -664 -731 -493 -1274 156 -496 594 -700 944
-441 67 49 149 141 192 215 142 245 185 516 132 842 -16 102 -82 269 -146 370
-37 59 -125 152 -183 194 -137 99 -294 132 -446 94z"/>
<path d="M3195 4740 c-105 -28 -167 -64 -259 -150 -89 -83 -169 -212 -219
-355 -22 -62 -29 -93 -52 -210 -10 -51 -13 -277 -5 -335 13 -88 20 -122 36
-180 129 -469 507 -708 858 -541 215 103 372 346 430 666 14 78 16 345 2 405
-3 14 -8 39 -12 55 -34 171 -122 349 -229 467 -147 163 -357 231 -550 178z"/>
<path d="M370 3381 c-88 -28 -141 -60 -200 -120 -64 -65 -108 -145 -142 -251
-19 -63 -23 -95 -22 -205 0 -110 5 -146 28 -229 52 -188 142 -330 276 -437
107 -86 198 -121 325 -125 74 -3 102 1 155 20 158 55 265 169 321 341 16 47
13 37 24 105 18 120 7 266 -31 390 -62 209 -231 413 -399 482 -115 48 -241 58
-335 29z"/>
<path d="M4545 3394 c-148 -22 -331 -153 -428 -307 -112 -178 -163 -407 -135
-597 10 -64 44 -174 66 -210 71 -117 128 -176 217 -220 202 -101 434 -45 620
149 65 68 99 119 145 216 64 135 84 229 84 395 0 92 -5 130 -23 190 -58 187
-157 302 -311 361 -53 20 -173 32 -235 23z"/>
<path d="M2508 2855 c-2 -2 -37 -5 -78 -9 -122 -9 -276 -48 -387 -97 -109 -48
-135 -61 -209 -105 -323 -191 -611 -517 -797 -906 -132 -273 -195 -537 -192
-795 2 -139 13 -196 56 -289 69 -147 209 -246 401 -281 96 -17 361 -9 508 17
30 5 73 12 94 15 21 3 48 7 60 10 12 3 35 7 51 10 17 3 82 14 145 25 314 54
432 59 628 26 91 -16 211 -37 232 -41 14 -3 43 -8 64 -10 22 -3 58 -10 80 -15
23 -5 64 -12 91 -16 28 -3 59 -8 70 -10 63 -12 179 -19 315 -18 128 0 169 4
235 23 197 55 319 169 377 352 42 134 30 396 -29 619 -14 52 -28 104 -31 115
-3 11 -8 25 -12 30 -4 6 -10 23 -14 40 -4 16 -19 55 -33 85 -14 30 -32 73 -41
95 -50 124 -231 404 -337 520 -130 142 -191 199 -305 287 -235 179 -482 284
-745 314 -51 6 -193 12 -197 9z"/>
</g>
</svg>
